# xmcd CD database file
#
# Track frame offsets:
#	150
#	10302
#	29530
#	47140
#	65335
#	77477
#	103942
#	125587
#	141377
#	168345
#
# Disc length: 2438 seconds
#
# Revision: 0
# Processed by: cddbd v1.4PL0 Copyright (c) Steve Scherf et al.
# Submitted via: Feurio! 1.65 - http://www.feurio.com
#
DISCID=8809840a
DTITLE=Chuck Berry - Live At The Fillmore Auditorium
DYEAR=1900
DGENRE=blues
TTITLE0=Sweet Little Sixteen
TTITLE1=C. C. Rider
TTITLE2=Driftin' Blues
TTITLE3=Feelin' It
TTITLE4=Flying Home
TTITLE5=I'm Your Hoochie Coochie Man
TTITLE6=It Hurts Me Too
TTITLE7=Fillmore Blues
TTITLE8=Reelin' And Rockin'
TTITLE9=Johnny B. Goode
EXTD=Polygram Records (Canada)
EXTT0=
EXTT1=
EXTT2=
EXTT3=
EXTT4=
EXTT5=
EXTT6=
EXTT7=
EXTT8=
EXTT9=
PLAYORDER=
